<?xml version="1.0" standalone="no"?>
<!DOCTYPE svg PUBLIC "-//W3C//DTD SVG 20010904//EN"
 "http://www.w3.org/TR/2001/REC-SVG-20010904/DTD/svg10.dtd">
<svg version="1.0" xmlns="http://www.w3.org/2000/svg"
 width="190.000000pt" height="305.000000pt" viewBox="0 0 190.000000 305.000000"
 preserveAspectRatio="xMidYMid meet">
<metadata>
Created by potrace 1.10, written by Peter Selinger 2001-2011
</metadata>
<g transform="translate(0.000000,305.000000) scale(0.100000,-0.100000)"
fill="#000000" stroke="none">
<path d="M678 2983 c-38 -9 -68 -19 -68 -23 0 -4 28 -1 63 6 34 7 86 13 114
14 53 0 133 -25 133 -41 0 -5 10 -9 23 -9 21 1 21 2 -8 25 -31 25 -104 46
-158 44 -18 -1 -62 -8 -99 -16z"/>
<path d="M720 2963 c0 -5 13 -8 29 -8 16 0 27 3 24 8 -2 4 -15 7 -29 7 -13 0
-24 -3 -24 -7z"/>
<path d="M534 2927 c-66 -20 -184 -78 -184 -89 0 -12 10 -9 38 11 30 20 119
61 134 61 6 0 5 -6 -2 -15 -6 -8 -9 -18 -6 -23 6 -9 -30 -26 -48 -23 -4 1 -13
-2 -20 -7 -20 -16 -48 -23 -40 -11 4 7 1 10 -7 7 -8 -3 -13 -10 -12 -16 2 -6
-5 -10 -15 -10 -9 0 -26 -3 -36 -7 -14 -6 -17 -5 -11 4 6 10 3 11 -14 2 -11
-7 -21 -13 -21 -15 0 -6 56 1 71 8 8 4 3 -2 -10 -14 -15 -12 -33 -19 -44 -16
-10 2 -16 2 -13 -1 3 -4 -2 -15 -11 -26 -17 -19 -17 -20 5 -8 12 6 22 9 22 6
0 -2 9 3 20 13 12 9 25 18 30 18 6 1 15 2 22 3 6 0 8 4 4 8 -11 12 57 30 72
19 9 -6 12 -6 10 2 -3 11 21 26 107 70 17 8 40 24 51 34 12 11 29 18 37 16 9
-2 15 2 14 7 -3 16 -79 12 -143 -8z m63 -25 c-12 -11 -20 -13 -25 -6 -4 6 -14
14 -22 17 -8 4 0 4 18 1 22 -4 32 -2 32 7 0 7 3 9 7 5 4 -3 -1 -14 -10 -24z"/>
<path d="M720 2923 c-8 -3 -21 -11 -29 -17 -7 -6 -19 -11 -25 -11 -18 0 -87
-37 -81 -43 3 -3 15 0 28 6 35 17 151 57 160 54 4 -1 7 3 7 8 0 11 -35 12 -60
3z"/>
<path d="M928 2910 c-38 -7 -94 -38 -84 -47 3 -3 18 3 33 13 56 37 195 15 192
-30 -4 -41 1 -67 11 -61 6 4 8 11 5 16 -4 5 -1 9 5 9 8 0 10 -9 6 -26 -5 -19
-3 -25 6 -21 7 2 12 13 10 23 -4 30 -45 103 -62 110 -32 14 -86 20 -122 14z"/>
<path d="M447 2868 c-22 -11 -36 -22 -33 -25 3 -3 12 0 21 7 8 7 22 10 30 6 9
-3 13 -2 10 3 -3 5 3 11 12 13 10 2 14 6 8 10 -5 3 -27 -3 -48 -14z"/>
<path d="M730 2869 c-17 -13 -18 -17 -5 -10 33 17 51 31 40 31 -5 0 -21 -10
-35 -21z"/>
<path d="M821 2873 c-1 -7 -19 -17 -41 -23 -43 -12 -57 -25 -39 -36 8 -4 9 -3
5 4 -4 7 0 12 11 13 32 2 38 4 57 15 10 6 16 17 13 25 -3 9 -6 10 -6 2z"/>
<path d="M1036 2857 c3 -8 1 -25 -5 -36 -9 -17 -9 -20 3 -15 8 3 16 -2 19 -13
4 -14 5 -14 6 5 0 12 -4 22 -10 22 -8 0 -8 4 0 14 9 10 8 16 -4 26 -13 11 -14
10 -9 -3z"/>
<path d="M588 2830 c-21 -11 -44 -17 -52 -14 -8 3 -25 -9 -41 -30 -15 -20 -31
-34 -35 -31 -7 4 -40 -37 -40 -50 0 -14 18 -3 29 18 11 22 11 22 6 -3 -5 -23
-4 -23 6 -4 5 11 33 29 61 40 28 10 69 36 92 56 46 41 33 50 -26 18z"/>
<path d="M709 2812 c-2 -5 -15 -13 -28 -17 -16 -5 -21 -4 -17 4 5 7 1 8 -10 4
-11 -4 -13 -8 -6 -11 7 -2 9 -8 6 -13 -3 -6 -12 -5 -22 3 -15 11 -15 11 -4 -4
11 -14 10 -17 -5 -21 -14 -4 -13 -5 5 -6 12 0 22 3 22 7 0 12 49 34 60 27 13
-8 20 9 11 24 -5 7 -10 9 -12 3z"/>
<path d="M213 2801 c-4 -3 -15 -15 -23 -26 -12 -17 -10 -16 11 3 14 12 28 20
31 16 3 -3 8 -1 12 4 6 10 -19 12 -31 3z"/>
<path d="M402 2770 c-12 -11 -26 -20 -32 -20 -6 0 -8 -4 -5 -10 3 -6 -4 -10
-17 -10 -21 0 -98 -52 -106 -72 -2 -5 -9 -8 -15 -8 -7 0 -18 -10 -26 -21 -11
-19 -11 -21 3 -16 9 4 16 2 16 -3 0 -6 -5 -10 -11 -10 -6 0 -3 -7 6 -16 12
-12 13 -19 4 -30 -16 -20 -37 -17 -44 6 -7 21 -25 28 -25 10 0 -5 5 -10 11
-10 6 0 0 -14 -12 -31 -20 -28 -40 -119 -26 -119 3 0 11 24 17 53 11 56 25 85
35 75 3 -3 -1 -23 -9 -43 -9 -21 -16 -45 -15 -54 0 -9 6 -1 13 17 6 18 15 30
20 25 4 -4 6 -1 4 8 -1 9 10 29 25 43 15 14 25 31 22 37 -17 27 -12 57 12 68
13 6 29 11 36 11 7 0 18 9 25 20 7 11 20 20 30 20 14 0 15 2 2 10 -12 8 -12
10 5 10 11 0 35 16 54 35 37 37 39 59 3 25z"/>
<path d="M203 2731 c-9 -11 -20 -18 -25 -15 -5 3 -7 2 -6 -3 1 -4 -13 -29 -31
-55 -19 -25 -33 -50 -33 -55 0 -4 -5 -17 -10 -28 -6 -10 -12 -35 -14 -55 -1
-19 -6 -65 -9 -101 -6 -55 -3 -79 19 -150 26 -83 86 -189 72 -127 -4 17 -1 28
7 31 7 3 5 6 -5 6 -10 1 -22 9 -27 19 -9 17 -11 35 -14 142 -1 35 -8 62 -19
74 -14 16 -15 23 -3 55 7 21 11 50 8 64 -3 16 -1 27 6 27 6 0 14 17 17 38 6
40 58 115 83 120 7 1 19 -2 26 -8 10 -9 13 -7 11 7 -2 11 -10 17 -21 15 -10
-2 -14 1 -10 7 11 18 -4 12 -22 -8z"/>
<path d="M1140 2743 c-48 -8 -56 -13 -40 -23 9 -6 10 -10 3 -10 -6 0 -18 6
-25 13 -7 7 -24 13 -36 14 -24 2 -24 2 -4 -15 12 -9 37 -30 57 -46 20 -15 45
-42 56 -60 17 -29 19 -29 20 -8 1 12 2 27 3 34 1 6 -7 12 -17 14 -24 3 -31 10
-18 19 6 3 11 1 11 -5 0 -6 5 -8 11 -4 8 4 7 9 -2 15 -18 10 -6 21 14 13 9 -3
13 -12 10 -20 -3 -8 -1 -14 4 -14 5 0 10 -11 11 -26 1 -14 -2 -23 -8 -19 -6 4
-10 -10 -10 -34 0 -46 14 -55 24 -15 4 14 16 39 28 54 25 34 19 86 -12 113
-20 17 -31 18 -80 10z m57 -10 c-4 -3 2 -12 13 -20 21 -15 29 -83 10 -83 -5 0
-10 9 -10 21 0 24 -34 72 -44 61 -4 -3 -4 1 0 11 3 9 13 17 22 17 8 0 12 -3 9
-7z"/>
<path d="M400 2716 c0 -8 -6 -17 -12 -19 -10 -4 -10 -6 -1 -6 7 -1 17 8 23 19
7 14 7 20 0 20 -5 0 -10 -6 -10 -14z"/>
<path d="M546 2721 c-17 -6 -17 -8 -3 -14 8 -3 21 1 27 9 13 15 6 17 -24 5z"/>
<path d="M203 2669 c-35 -32 -41 -42 -20 -33 11 5 63 64 55 64 -2 0 -18 -14
-35 -31z"/>
<path d="M494 2684 c-18 -15 -18 -15 3 -5 12 6 30 8 40 5 15 -5 15 -4 3 5 -20
14 -23 14 -46 -5z"/>
<path d="M258 2598 c-14 -14 -15 -18 -4 -18 8 0 17 7 20 16 9 23 4 24 -16 2z"/>
<path d="M800 2492 c0 -7 -6 -12 -13 -12 -16 0 -61 -47 -70 -72 -4 -10 -11
-18 -17 -18 -6 0 -9 -22 -8 -52 1 -47 2 -48 5 -14 5 46 31 88 82 133 20 17 33
35 29 39 -5 4 -8 2 -8 -4z"/>
<path d="M244 2482 c-13 -9 -64 -101 -64 -116 1 -6 9 4 19 23 13 24 20 30 25
20 3 -8 4 -5 1 7 -3 12 3 32 16 47 21 28 22 32 3 19z"/>
<path d="M1168 2475 c-2 -3 -43 -7 -89 -9 -83 -3 -159 -26 -159 -47 0 -6 7 -6
18 0 29 16 120 21 149 9 61 -25 103 -14 103 27 0 23 -10 32 -22 20z"/>
<path d="M1244 2462 c-5 -4 -15 -20 -22 -36 -11 -24 -11 -31 0 -37 7 -5 9 -9
4 -9 -5 0 -1 -9 9 -20 25 -27 38 -25 31 4 -3 14 -2 28 4 31 14 9 12 51 -3 63
-7 6 -17 8 -23 4z"/>
<path d="M236 2373 c-4 -9 -2 -21 3 -26 7 -7 2 -18 -14 -33 -14 -13 -25 -28
-25 -35 0 -6 13 3 29 22 20 23 27 37 20 45 -5 6 -7 19 -3 28 3 9 4 16 1 16 -3
0 -8 -8 -11 -17z"/>
<path d="M1003 2368 c-13 -6 -23 -17 -23 -24 0 -7 -9 -16 -20 -19 -11 -3 -20
-11 -20 -17 0 -6 7 -7 18 -2 9 4 32 8 50 8 l32 -1 -27 18 -27 18 27 6 c15 4
27 11 27 16 0 11 -9 11 -37 -3z"/>
<path d="M1057 2340 c3 -11 14 -20 24 -20 10 0 23 9 29 20 10 18 8 20 -24 20
-29 0 -33 -3 -29 -20z"/>
<path d="M173 2274 c3 -4 2 -15 -3 -24 -7 -13 -6 -19 4 -23 9 -4 13 4 13 24 0
16 -5 29 -10 29 -6 0 -7 -3 -4 -6z"/>
<path d="M434 2241 c3 -5 -6 -17 -19 -27 -14 -10 -25 -27 -25 -37 0 -10 -3
-16 -7 -14 -9 6 -9 -44 -1 -59 3 -5 11 -26 17 -46 7 -21 17 -38 22 -38 6 0 8
-10 4 -22 -4 -15 -3 -18 2 -10 7 9 17 3 39 -22 21 -24 42 -36 72 -41 51 -8
102 2 102 20 0 11 -7 12 -32 4 -59 -16 -82 -11 -120 29 -69 71 -102 177 -68
217 26 31 48 36 86 20 44 -18 44 -18 44 -1 0 14 -27 23 -90 31 -17 2 -28 0
-26 -4z"/>
<path d="M227 2222 c-10 -10 -17 -23 -17 -29 0 -6 -7 -16 -15 -23 -9 -7 -14
-19 -11 -26 3 -7 -4 -29 -14 -50 -13 -25 -16 -42 -10 -53 7 -13 11 -10 20 17
7 17 16 32 20 32 5 0 7 9 5 20 -2 11 2 20 8 20 7 0 6 4 -3 10 -12 7 -7 12 23
25 20 8 37 20 37 25 0 7 -7 7 -21 0 -21 -12 -42 -4 -23 8 10 7 27 42 20 42 -1
0 -10 -8 -19 -18z"/>
<path d="M706 2200 c3 -25 10 -52 16 -60 6 -10 7 1 2 30 -3 25 -10 52 -16 60
-6 10 -7 -1 -2 -30z"/>
<path d="M1182 2195 c-32 -41 -11 -74 48 -75 9 0 6 6 -8 16 -24 16 -28 61 -7
76 6 5 6 8 -2 8 -6 0 -20 -11 -31 -25z"/>
<path d="M1353 2195 c-7 -8 -13 -19 -13 -26 0 -6 -7 -8 -16 -5 -40 15 -65 17
-79 6 -16 -13 -10 -34 6 -24 15 9 61 -5 53 -17 -3 -6 -8 -8 -11 -5 -8 7 -43
-34 -43 -49 0 -18 28 -27 50 -15 27 14 48 3 46 -26 -1 -20 -6 -24 -35 -24 -36
0 -105 -36 -96 -50 3 -5 20 0 38 10 18 11 49 20 70 20 l37 0 0 44 c0 35 -5 49
-25 64 l-24 19 29 33 c17 19 30 40 30 47 0 16 -2 16 -17 -2z m-60 -91 c-7 -3
-9 -13 -6 -22 5 -13 3 -14 -7 -5 -14 13 -5 33 13 32 9 0 9 -2 0 -5z"/>
<path d="M635 2169 c-15 -6 -16 -8 -4 -8 14 -1 20 -11 34 -63 2 -5 3 -21 4
-36 1 -32 25 -71 37 -60 4 5 0 16 -10 27 -13 14 -14 24 -7 43 7 20 5 35 -11
64 -11 22 -21 40 -22 40 0 1 -10 -2 -21 -7z"/>
<path d="M430 2151 c0 -29 44 -121 70 -146 28 -27 32 -28 70 -16 22 6 40 16
40 21 0 15 17 12 34 -5 8 -9 13 -22 10 -30 -4 -8 -2 -15 4 -15 5 0 12 6 15 14
6 15 -32 56 -51 56 -7 0 -12 7 -12 15 0 8 -5 15 -10 15 -6 0 -17 15 -25 33
l-14 32 -1 -32 c0 -23 5 -33 15 -33 8 0 15 -5 15 -11 0 -6 -8 -8 -19 -4 -11 3
-22 1 -26 -5 -17 -27 -38 11 -28 51 4 15 8 17 14 8 11 -19 24 15 14 39 -7 16
-8 15 -15 -3 -5 -11 -9 -15 -9 -10 -1 6 -6 3 -11 -5 -26 -40 3 -114 37 -95 10
6 28 9 41 7 19 -3 20 -5 8 -18 -18 -17 -65 -18 -87 -1 -25 19 -46 59 -53 99
-6 34 -26 64 -26 39z"/>
<path d="M270 2117 c-32 -28 -71 -83 -64 -89 3 -3 -6 -15 -20 -26 -15 -11 -26
-23 -26 -26 0 -11 28 -6 33 7 4 9 6 8 6 -2 1 -9 11 -3 26 15 14 16 23 35 20
42 -3 7 -1 10 4 7 5 -3 12 -1 16 5 3 5 0 10 -7 10 -8 0 -6 5 5 11 9 5 17 18
17 29 0 10 6 20 13 23 6 2 10 7 7 10 -3 3 -16 -4 -30 -16z"/>
<path d="M731 2058 c31 -45 33 -46 24 -18 -8 24 -28 50 -40 50 -3 0 4 -15 16
-32z"/>
<path d="M1217 2039 c-9 -10 -23 -19 -31 -19 -8 0 -15 -8 -15 -17 1 -10 -3
-29 -7 -42 -10 -34 17 -23 35 14 7 15 25 38 39 50 20 17 22 23 10 27 -8 4 -22
-2 -31 -13z"/>
<path d="M236 1981 c-10 -10 -32 -22 -51 -25 -35 -7 -48 -24 -35 -46 7 -11 11
-10 25 3 24 25 30 21 11 -8 -20 -30 -20 -36 -1 -29 10 4 15 0 15 -11 0 -20 16
-11 31 18 9 18 9 20 -2 10 -22 -21 -29 -15 -26 22 1 23 8 37 20 41 9 3 22 14
27 25 13 24 8 24 -14 0z"/>
<path d="M748 1963 c6 -2 12 -13 12 -24 0 -10 5 -19 10 -19 6 0 10 6 10 13 0
16 -20 37 -34 36 -6 0 -5 -3 2 -6z"/>
<path d="M711 1925 c0 -5 6 -21 14 -35 8 -14 14 -20 14 -15 0 6 -6 21 -14 35
-8 14 -14 21 -14 15z"/>
<path d="M1325 1918 c-45 -16 -59 -43 -27 -51 12 -3 9 -5 -8 -6 -25 -2 -25 -2
-3 -11 14 -6 24 -21 29 -44 3 -21 10 -33 17 -29 7 4 8 -5 4 -27 -6 -28 -5 -32
12 -27 14 3 17 0 14 -14 -3 -10 -10 -16 -16 -12 -7 4 -8 0 -4 -11 4 -10 7 -20
7 -22 0 -3 4 -3 8 0 5 3 9 -1 9 -9 0 -8 -4 -15 -8 -15 -5 0 -6 -6 -3 -13 3 -8
-4 -13 -18 -14 -18 -2 -20 0 -8 8 11 8 9 9 -9 4 -14 -5 -26 -2 -31 5 -5 8 -13
9 -21 4 -7 -4 -25 -9 -39 -10 -44 -5 -70 -14 -70 -24 0 -6 7 -10 15 -10 8 0
15 -5 15 -12 0 -6 9 -2 20 10 25 27 31 28 24 5 -5 -16 -4 -16 6 0 11 17 12 17
29 -2 15 -18 26 -20 63 -15 42 6 47 9 58 45 10 30 11 42 2 51 -15 15 -16 32
-2 23 12 -7 14 8 3 19 -5 4 -8 11 -9 14 0 4 -10 27 -21 52 -17 39 -18 48 -7
65 15 20 19 86 7 84 -5 0 -21 -5 -38 -11z m-25 -325 c0 -13 -3 -13 -15 -3 -8
7 -12 16 -9 21 8 13 24 1 24 -18z"/>
<path d="M1052 1885 c-17 -36 -15 -39 10 -15 15 14 19 23 12 30 -7 7 -14 2
-22 -15z"/>
<path d="M240 1870 c0 -6 -12 -22 -27 -36 l-27 -25 23 -15 c18 -13 20 -19 10
-30 -6 -8 -9 -18 -5 -22 4 -4 17 5 28 21 11 15 27 27 35 27 13 0 13 -3 3 -15
-7 -9 -15 -13 -18 -10 -3 3 -11 -4 -19 -15 -12 -17 -11 -23 4 -46 15 -24 17
-25 24 -8 3 11 5 22 2 27 -2 4 1 7 7 7 7 0 10 6 8 12 -3 7 2 19 9 27 11 10 12
16 3 21 -9 6 -9 10 2 16 18 11 31 44 18 44 -6 0 -10 -6 -10 -14 0 -7 -15 -21
-34 -30 -42 -20 -52 -20 -36 -1 10 12 10 15 -1 15 -11 1 -11 3 1 13 17 13 23
47 9 47 -5 0 -9 -5 -9 -10z"/>
<path d="M865 1850 c9 -16 17 -30 20 -30 2 0 -1 14 -6 30 -6 17 -15 30 -20 30
-5 0 -3 -13 6 -30z"/>
<path d="M1137 1853 c-4 -3 -7 -13 -7 -21 0 -12 3 -12 15 -2 8 7 15 16 15 21
0 11 -14 12 -23 2z"/>
<path d="M1110 1800 c0 -19 3 -21 12 -12 9 9 9 15 0 24 -9 9 -12 7 -12 -12z"/>
<path d="M306 1720 c-23 -49 -26 -63 -16 -75 7 -8 21 -15 31 -15 23 0 32 -15
31 -51 0 -17 6 -30 16 -34 15 -5 14 -9 -8 -27 -20 -16 -21 -18 -5 -13 11 4 25
8 32 8 7 0 10 4 7 9 -3 4 0 8 6 8 6 0 4 7 -5 16 -13 14 -14 19 -3 25 9 7 10
11 2 17 -30 19 -52 83 -48 137 2 30 0 55 -4 55 -4 0 -20 -27 -36 -60z"/>
<path d="M947 1627 c-3 -9 1 -18 9 -21 16 -6 18 2 5 22 -7 11 -9 11 -14 -1z"/>
<path d="M1080 1568 c0 -21 3 -38 8 -38 6 0 60 -42 130 -101 27 -23 32 -24 32
-4 0 8 5 15 10 15 5 0 9 -6 7 -12 -1 -7 6 -12 16 -12 10 1 16 0 14 -3 -6 -6
46 -58 55 -55 4 1 5 -4 2 -12 -4 -10 5 -11 43 -5 33 5 51 4 58 -4 6 -7 19 -16
29 -22 9 -5 18 -14 17 -20 0 -5 7 -14 15 -18 8 -5 12 -12 9 -18 -3 -5 1 -6 9
-3 9 3 13 10 10 15 -3 5 -1 9 4 9 17 0 22 -13 9 -28 -10 -13 -9 -15 7 -8 23 8
66 -35 67 -68 0 -21 1 -21 9 -1 8 18 9 17 9 -7 1 -15 6 -30 11 -33 6 -3 10
-24 10 -46 0 -21 4 -39 9 -39 5 0 9 -10 9 -22 1 -45 24 -163 33 -172 13 -14
11 -43 -3 -52 -6 -4 -9 -3 -6 2 3 5 2 18 -3 29 -6 14 -8 7 -6 -25 1 -29 6 -44
14 -43 9 2 12 -24 11 -100 -2 -138 10 -247 26 -241 9 3 12 -7 11 -36 -1 -22 2
-40 7 -40 4 0 8 -25 8 -55 0 -31 7 -72 16 -93 8 -20 17 -50 19 -67 14 -124 18
-135 37 -135 17 0 19 4 13 28 -4 15 -10 47 -15 72 -4 25 -20 95 -34 155 -34
149 -56 299 -56 392 0 96 -26 366 -40 413 -21 72 -59 154 -85 181 -14 15 -51
42 -83 60 -31 18 -71 43 -88 56 -17 13 -42 23 -57 23 -14 0 -38 11 -54 24 -15
13 -37 26 -48 30 -12 3 -49 35 -85 71 -40 41 -67 62 -73 56 -11 -11 0 -34 13
-26 4 3 7 -3 5 -12 -2 -10 -4 -21 -4 -26 -2 -14 -61 46 -61 62 0 9 -5 23 -10
31 -7 11 -10 5 -10 -22z"/>
<path d="M1115 1540 c3 -5 16 -15 28 -21 l22 -11 -22 21 c-23 22 -39 28 -28
11z"/>
<path d="M1077 1442 c-2 -42 -7 -88 -11 -102 -7 -23 -6 -24 7 -7 9 10 18 45
22 78 4 32 12 62 18 66 5 3 7 1 3 -5 -3 -6 -2 -13 4 -17 6 -4 8 -10 5 -15 -10
-16 15 -22 32 -8 15 11 16 11 10 -6 -6 -14 -4 -17 9 -12 14 5 15 4 4 -9 -7 -8
-9 -15 -4 -16 47 -4 65 -16 44 -29 -8 -6 -10 -10 -4 -10 19 0 23 -24 7 -39
-13 -12 -14 -11 -9 10 3 13 3 18 0 11 -3 -6 -10 -9 -16 -6 -6 4 -6 -1 1 -14 6
-11 9 -34 6 -51 -2 -18 0 -29 6 -26 5 4 9 -3 9 -15 0 -13 -4 -19 -11 -14 -7 4
-7 -1 1 -15 7 -14 8 -27 2 -34 -5 -7 -9 -44 -8 -84 1 -39 -1 -70 -4 -68 -4 2
-6 -33 -6 -78 0 -45 -5 -101 -11 -124 -6 -24 -7 -43 -3 -43 5 0 6 -9 3 -20 -7
-25 -20 -26 -26 -2 -4 15 -5 15 -6 0 0 -9 4 -20 9 -23 6 -3 10 -14 10 -23 0
-15 -2 -15 -10 -2 -7 11 -9 3 -6 -27 3 -41 -6 -57 -18 -30 -3 6 -3 1 0 -12 4
-14 2 -21 -3 -18 -6 4 -9 -7 -8 -22 1 -21 -2 -28 -12 -24 -9 4 -13 -4 -13 -25
0 -17 -5 -34 -10 -37 -6 -3 -8 -17 -6 -31 3 -13 0 -24 -5 -24 -5 0 -9 7 -9 15
0 8 -4 15 -8 15 -12 0 -34 49 -27 60 3 5 -1 11 -7 13 -10 4 -10 6 0 6 10 1 10
6 2 21 -6 11 -8 26 -4 32 5 7 3 8 -6 3 -10 -6 -12 -3 -8 13 4 12 2 25 -4 28
-5 3 -7 13 -4 21 3 8 2 12 -3 9 -5 -3 -7 18 -5 47 3 62 -5 114 -16 97 -5 -8
-10 -2 -14 14 -4 16 -11 24 -18 20 -7 -5 -8 -3 -3 7 14 21 13 50 0 56 -13 4
-29 57 -26 81 1 6 -4 12 -11 12 -9 0 -9 3 2 10 13 8 12 10 -2 10 -16 0 -21 11
-17 38 1 4 5 6 10 4 5 -1 9 2 9 7 0 5 -10 11 -22 13 -13 2 -24 11 -26 23 -3
16 -1 17 9 8 8 -8 18 -9 29 -3 9 5 22 5 31 -1 11 -7 10 -9 -6 -10 -11 -1 -2
-5 20 -9 22 -5 44 -4 50 1 5 6 5 9 -3 10 -17 2 -23 4 -64 22 -21 10 -47 17
-58 17 -11 0 -20 4 -20 8 0 5 -24 19 -52 32 -53 24 -76 44 -114 96 -10 15 -31
40 -46 56 -16 16 -28 33 -28 38 0 6 -5 10 -10 10 -19 0 23 -66 86 -134 26 -29
28 -35 15 -45 -13 -10 -12 -11 7 -7 17 3 22 1 19 -9 -4 -9 1 -11 14 -8 14 4
33 -6 62 -33 23 -22 36 -32 30 -24 -7 7 -13 19 -13 24 0 6 7 1 15 -11 9 -12
15 -26 14 -30 -1 -4 5 -25 15 -45 9 -21 22 -62 30 -90 30 -113 48 -168 56
-168 8 0 25 -68 21 -85 -3 -10 14 -83 49 -210 11 -38 21 -82 24 -97 6 -38 26
-72 36 -62 5 5 11 20 13 34 11 57 38 149 61 206 29 71 53 193 61 319 4 50 8
113 11 140 2 28 6 86 9 130 2 44 7 104 11 133 6 59 3 63 -113 159 l-51 43 -5
-78z"/>
<path d="M396 1492 c-3 -5 -19 -12 -36 -15 -34 -7 -40 -26 -9 -34 16 -4 19
-11 15 -29 -4 -15 -2 -24 5 -24 8 0 9 13 5 41 -4 23 -3 38 3 35 10 -7 37 22
28 30 -3 3 -8 1 -11 -4z"/>
<path d="M288 1443 c-8 -10 -18 -26 -21 -35 -4 -10 -16 -18 -27 -18 -17 0 -20
-4 -15 -20 4 -11 2 -20 -4 -20 -6 0 -11 -7 -11 -15 0 -13 4 -14 20 -5 11 6 20
17 20 25 0 8 7 15 15 15 8 0 15 7 15 15 0 10 10 15 28 15 l27 0 -25 -20 c-14
-11 -20 -20 -13 -20 6 0 15 5 18 10 11 17 24 11 39 -17 22 -41 19 -24 -8 42
-27 66 -36 73 -58 48z"/>
<path d="M1250 1401 c0 -5 4 -12 9 -16 10 -5 9 -37 -5 -205 -3 -47 -6 -92 -6
-100 0 -8 -6 -84 -14 -169 -16 -176 -31 -247 -72 -352 -23 -59 -51 -150 -57
-189 0 -3 -7 -16 -14 -28 -7 -13 -10 -26 -8 -29 3 -3 15 14 27 37 14 28 25 39
31 33 12 -12 -20 -82 -38 -83 -8 0 -8 -9 -1 -35 13 -41 -1 -65 -38 -65 -47 0
-57 87 -12 111 12 6 16 14 11 18 -6 3 -16 24 -23 46 -7 22 -15 45 -18 50 -4 6
-7 19 -7 30 -1 11 -5 28 -9 37 -4 9 -9 25 -11 35 -2 10 -4 20 -6 23 -1 3 -3
10 -4 15 -7 48 -31 126 -47 152 -11 18 -21 52 -23 75 -4 49 -37 176 -64 247
-28 74 -68 111 -87 80 -4 -8 1 -9 17 -4 21 7 22 6 10 -8 -11 -14 -10 -18 13
-28 22 -10 24 -15 14 -33 -11 -20 -10 -20 8 -6 10 8 16 10 12 6 -4 -5 -3 -15
3 -22 13 -16 2 -37 -13 -28 -7 4 -8 2 -4 -5 4 -6 11 -9 16 -6 4 3 10 -2 14
-10 3 -8 0 -15 -7 -15 -8 0 -8 -3 2 -9 7 -5 15 -26 17 -47 2 -21 8 -40 14 -42
5 -2 8 -8 4 -13 -3 -5 0 -9 5 -9 6 0 11 -5 11 -11 0 -5 -6 -7 -12 -3 -8 5 -7
0 2 -11 9 -11 10 -16 3 -11 -8 4 -13 1 -13 -9 0 -9 5 -13 11 -9 8 5 8 1 0 -14
-9 -16 -6 -25 16 -48 14 -16 28 -41 29 -57 2 -15 8 -36 14 -46 5 -11 11 -39
12 -64 2 -25 7 -42 12 -39 5 3 6 -2 3 -12 -4 -9 -3 -15 2 -12 5 3 11 -1 15 -9
3 -8 1 -17 -5 -21 -7 -4 -5 -12 4 -22 8 -10 13 -27 11 -39 -2 -13 1 -23 7 -23
5 0 7 -4 4 -10 -3 -5 -2 -10 3 -10 10 0 7 -27 -5 -60 -4 -8 -5 -19 -4 -24 1
-4 -6 -15 -16 -23 -10 -8 -12 -12 -5 -8 12 6 32 -29 27 -50 -1 -5 0 -6 3 -2 2
4 11 2 19 -4 17 -14 55 -20 47 -7 -3 4 3 8 14 8 10 0 19 6 20 13 3 39 17 96
31 127 13 27 14 42 7 63 -8 22 -7 30 4 37 8 6 11 10 5 10 -5 0 -11 19 -13 43
-1 27 1 37 7 28 11 -17 23 1 15 23 -3 9 -2 16 4 16 9 0 22 28 27 55 4 26 17
55 23 51 4 -2 8 9 8 26 1 17 7 34 15 39 11 7 9 9 -6 10 -11 0 -15 3 -8 5 7 3
9 12 6 21 -5 12 -3 14 7 8 10 -6 12 -4 7 8 -4 10 -10 24 -14 34 -4 11 -3 14 6
8 10 -6 11 -3 2 14 -10 17 -9 21 4 21 8 0 15 5 15 11 0 5 -5 7 -11 3 -7 -4
-10 -1 -7 7 3 8 11 13 17 11 7 -1 10 2 6 8 -3 6 -10 8 -14 6 -12 -8 -5 82 8
98 11 13 11 19 0 33 -11 13 -11 17 -1 20 6 3 12 9 12 14 0 6 -6 7 -12 3 -8 -5
-7 0 2 11 12 15 12 17 1 10 -11 -6 -13 -4 -8 9 4 10 7 20 7 22 0 3 5 2 10 -1
6 -3 10 -1 10 4 0 6 -4 11 -8 11 -12 0 -10 94 2 102 6 4 5 12 -2 21 -7 7 -8
17 -4 21 10 11 9 70 -2 77 -4 4 -3 9 2 13 6 3 25 -8 43 -26 33 -35 30 -21 -5
19 -25 30 -66 56 -66 44z"/>
<path d="M147 1393 c-15 -14 -6 -25 17 -21 22 5 23 3 13 -19 -6 -13 -18 -23
-26 -22 -22 3 -52 -11 -46 -21 3 -4 -4 -10 -15 -13 -11 -3 -18 -1 -15 3 10 17
-13 19 -26 3 -8 -10 -9 -14 -2 -10 6 4 14 3 18 -3 3 -5 17 -10 31 -10 17 0 24
5 24 20 0 11 7 20 14 20 13 0 13 -4 0 -35 -13 -32 -13 -34 3 -28 10 4 27 15
37 25 20 19 56 25 56 9 0 -5 -34 -25 -74 -45 -41 -20 -81 -45 -89 -56 -8 -11
-17 -17 -20 -13 -4 3 -7 1 -7 -6 0 -6 -10 -15 -22 -20 -21 -8 -21 -8 4 -13 19
-4 25 -1 21 9 -3 7 0 13 7 13 7 0 19 8 27 18 8 9 12 11 8 5 -5 -10 0 -11 20
-3 34 13 55 13 35 0 -13 -8 -12 -10 3 -10 11 0 15 -4 11 -12 -4 -7 -3 -8 5 -4
6 4 9 11 6 16 -3 5 0 12 6 16 8 4 9 3 5 -4 -8 -14 3 -15 23 -3 11 7 8 11 -10
17 -13 4 -34 7 -46 5 -31 -3 -29 17 2 25 16 4 37 -1 61 -15 20 -12 39 -19 42
-16 3 3 0 5 -7 5 -7 0 -9 5 -5 13 4 6 4 9 -1 5 -4 -4 -16 -3 -26 3 -16 8 -17
14 -8 30 6 11 16 18 23 16 7 -3 13 5 14 19 1 16 -4 24 -16 26 -9 0 -23 2 -29
2 -16 2 -17 5 -4 39 6 16 11 33 11 38 0 10 -43 12 -53 2z"/>
<path d="M1330 1276 c0 -22 3 -27 11 -19 8 8 8 16 0 30 -9 16 -10 14 -11 -11z"/>
<path d="M400 1272 c0 -5 7 -15 15 -22 8 -7 12 -16 9 -21 -3 -5 1 -7 8 -4 8 3
20 -12 32 -40 22 -55 29 -55 14 0 -9 36 -78 113 -78 87z"/>
<path d="M40 1230 c20 -13 53 -13 45 0 -3 6 -18 10 -33 10 -21 0 -24 -2 -12
-10z"/>
<path d="M13 1205 c-17 -19 -16 -35 2 -35 9 0 12 6 9 15 -4 9 0 15 10 15 9 0
16 5 16 10 0 15 -23 12 -37 -5z"/>
<path d="M1370 1110 c20 -13 43 -13 35 0 -3 6 -16 10 -28 10 -18 0 -19 -2 -7
-10z"/>
<path d="M1037 920 c3 -30 10 -66 14 -80 5 -15 5 -2 2 30 -3 30 -10 66 -14 80
-5 15 -5 2 -2 -30z"/>
<path d="M1375 770 c3 -5 13 -10 21 -10 8 0 12 5 9 10 -3 6 -13 10 -21 10 -8
0 -12 -4 -9 -10z"/>
<path d="M1053 288 c-8 -12 -9 -19 -5 -55 1 -7 6 -13 12 -13 5 0 7 7 4 15 -5
11 -2 13 10 9 9 -3 16 -1 16 5 0 7 -6 14 -14 17 -8 3 -12 12 -9 20 6 17 -1 18
-14 2z"/>
</g>
</svg>
