 <svg  version="1.0" xmlns="http://www.w3.org/2000/svg"  width="315.000000pt" height="315.000000pt" viewBox="0 0 315.000000 315.000000"  preserveAspectRatio="xMidYMid meet">  <g transform="translate(0.000000,315.000000) scale(0.050000,-0.050000)" fill="#050505" stroke="none"> <path d="M2857 6205 c-277 -258 -390 -533 -405 -985 -6 -148 -16 -300 -24 -337 -9 -43 -6 -72 9 -81 29 -18 31 -77 14 -542 -9 -266 -6 -434 10 -530 13 -77 26 -162 29 -190 3 -27 30 -104 60 -170 77 -170 84 -236 33 -292 -30 -31 -38 -59 -30 -94 10 -39 7 -46 -15 -33 -24 14 -24 12 -1 -17 15 -19 24 -60 19 -93 -5 -32 -1 -54 8 -49 24 15 20 -20 -6 -46 -15 -15 -15 -25 0 -35 12 -7 22 -27 22 -43 0 -38 99 -250 133 -283 14 -15 58 -66 99 -116 55 -67 80 -84 99 -68 27 22 138 -78 159 -143 11 -31 105 -88 135 -81 8 1 15 -6 15 -17 0 -11 10 -20 23 -20 13 0 53 -23 89 -50 36 -28 72 -50 80 -50 8 0 63 -36 121 -81 l107 -81 66 50 c36 27 150 82 254 122 283 108 338 153 460 375 40 73 85 96 110 55 7 -12 21 -15 31 -9 82 50 -6 -91 -121 -195 -77 -69 -140 -135 -140 -147 0 -12 -32 -52 -72 -90 -39 -38 -104 -114 -144 -169 -40 -55 -81 -106 -91 -113 -10 -7 -13 -27 -7 -44 7 -18 2 -38 -10 -45 -13 -9 -17 -5 -8 9 21 34 -19 28 -49 -8 -21 -25 -18 -44 19 -110 55 -98 40 -101 -41 -9 -61 69 -109 93 -91 45 4 -14 -4 -49 -18 -78 -22 -44 -22 -55 -1 -63 15 -6 28 -42 29 -80 1 -38 5 -82 8 -97 7 -30 -45 -33 -121 -9 -42 14 -44 12 -25 -25 15 -27 15 -45 2 -53 -31 -19 -24 -50 12 -50 52 0 19 -50 -39 -56 -29 -4 -53 -16 -53 -27 0 -10 8 -14 19 -8 10 7 28 -4 39 -24 15 -25 21 -27 21 -7 1 16 6 24 11 18 6 -6 5 -25 -2 -44 -12 -31 -15 -30 -40 2 -32 43 -37 19 -6 -37 53 -101 118 -131 118 -56 0 120 379 782 553 963 106 112 123 122 194 119 44 -2 92 8 108 21 36 30 115 38 86 9 -12 -12 -21 -30 -21 -42 0 -12 9 -7 20 9 16 24 23 25 37 4 13 -21 21 -20 41 4 20 24 16 35 -27 63 -69 46 -64 83 17 117 90 38 196 133 183 166 -5 14 1 23 15 21 13 -3 21 7 18 22 -4 19 6 24 27 15 21 -8 69 16 134 68 55 44 107 80 115 80 54 0 69 228 21 318 -12 22 -18 73 -13 113 9 70 32 122 32 71 0 -13 9 -19 20 -12 11 7 20 30 20 51 0 22 7 37 15 34 19 -6 25 12 25 74 0 48 -3 49 -156 47 -86 -2 -167 3 -180 12 -26 16 -30 5 -25 -63 3 -29 -10 -51 -37 -60 -30 -11 -35 -23 -21 -45 12 -20 18 -22 19 -5 0 14 9 25 20 25 11 0 20 -13 20 -30 0 -16 14 -30 31 -30 22 0 26 -9 12 -35 -9 -19 -14 -45 -9 -57 11 -33 -69 -49 -82 -16 -6 15 -24 22 -41 15 -18 -6 -43 -2 -58 11 -15 12 -33 16 -40 8 -7 -7 -13 2 -13 21 0 22 -17 33 -50 33 -27 0 -50 9 -50 20 0 11 -15 20 -33 20 -30 0 -29 4 4 41 37 41 37 41 -17 21 -30 -12 -54 -13 -54 -3 0 10 16 23 35 29 19 6 10 8 -20 4 -36 -4 -55 3 -55 21 0 15 -19 27 -41 27 -23 0 -36 9 -30 19 16 26 -32 101 -64 101 -14 0 -25 -9 -25 -20 0 -11 -9 -20 -20 -20 -11 0 -18 10 -15 23 4 20 -32 27 -220 42 -14 1 -26 20 -26 43 -1 40 -2 40 -20 -3 -18 -45 -59 -63 -59 -25 0 20 -70 17 -91 -4 -19 -19 -92 63 -78 86 8 13 -4 19 -32 15 -26 -4 -49 5 -55 21 -6 20 1 24 23 16 18 -7 33 -6 33 2 -1 30 -32 60 -70 68 -29 5 -38 21 -35 55 3 27 -2 53 -12 60 -65 43 -34 179 33 143 58 -31 64 -28 64 30 0 35 13 55 40 62 40 11 58 86 21 86 -27 0 -83 111 -66 129 8 7 2 21 -13 30 -45 28 -3 394 47 414 15 5 26 44 26 93 -1 195 87 394 173 394 17 0 40 18 52 39 12 23 33 35 50 28 17 -6 30 -1 30 11 0 36 125 80 157 55 20 -16 25 -12 20 17 -4 22 9 46 33 59 26 14 38 37 34 66 -4 25 2 45 13 45 11 0 43 48 71 107 27 58 64 118 81 132 17 14 31 34 31 45 0 41 53 74 80 50 21 -19 23 -17 13 12 -30 84 255 93 400 12 38 -21 64 -30 58 -19 -7 11 12 26 42 34 34 8 58 5 62 -9 4 -12 20 -17 36 -11 32 13 140 -146 160 -236 l13 -59 49 54 c28 29 51 69 53 89 1 20 8 33 15 28 7 -4 32 19 55 50 49 66 91 224 64 241 -9 6 -16 28 -14 50 3 24 -14 47 -41 60 -25 11 -41 30 -37 43 5 13 -3 28 -17 34 -15 6 -48 53 -74 106 -76 155 -248 307 -346 307 l-81 0 64 -39 c35 -21 74 -60 88 -85 21 -39 20 -43 -4 -23 -15 13 -82 51 -147 85 l-120 62 -1026 0 -1027 0 -101 -95z m309 -1618 c-36 -14 -55 -142 -27 -175 18 -23 14 -37 -20 -69 -44 -41 -47 -106 -10 -243 10 -38 3 -33 -27 20 -89 155 -38 484 74 478 20 -1 24 -5 10 -11z m-191 -202 c5 -157 15 -215 54 -295 26 -55 52 -115 58 -134 11 -33 94 -64 238 -86 76 -12 95 -47 57 -107 -23 -37 -165 -12 -232 41 -176 138 -329 787 -183 776 2 0 5 -88 8 -195z m497 -185 c7 -44 21 -80 31 -80 9 0 17 -9 17 -20 0 -11 -13 -20 -30 -20 -19 0 -31 -20 -32 -55 0 -30 -6 -44 -11 -30 -6 14 -18 21 -27 15 -8 -5 -22 15 -29 45 -8 30 -23 60 -35 67 -12 8 -15 39 -7 74 12 54 33 72 96 82 8 1 20 -34 27 -78z m-204 -177 c6 -9 -2 -34 -18 -55 -16 -21 -29 -27 -29 -15 -1 13 -6 38 -13 55 -13 34 41 47 60 15z m422 -444 c1 -43 -6 -79 -16 -79 -11 0 -14 -35 -6 -80 7 -44 4 -80 -6 -80 -10 0 -22 34 -28 75 -6 41 -14 99 -19 128 -7 40 -2 51 19 43 17 -7 27 0 25 16 -7 50 1 85 15 71 8 -8 15 -50 16 -94z"/> <path d="M4760 4879 c-27 -9 -90 -28 -140 -42 -235 -66 -346 -197 -161 -189 51 3 104 11 117 19 13 9 24 6 24 -6 0 -12 -16 -28 -35 -35 -91 -33 -161 -206 -83 -206 18 0 45 -15 61 -33 15 -18 54 -45 87 -59 33 -15 49 -27 35 -27 -98 -3 34 -81 144 -85 81 -3 224 63 187 87 -18 12 -14 16 18 17 35 0 43 11 42 61 -2 42 -8 55 -23 40 -24 -24 -93 -28 -143 -8 -25 9 -27 17 -9 28 18 11 10 29 -30 66 -33 30 -49 61 -40 75 9 14 7 19 -5 11 -24 -14 -146 41 -146 67 0 34 87 78 138 70 29 -5 86 -14 128 -20 90 -14 190 -102 178 -157 -5 -22 1 -33 13 -25 11 7 25 5 31 -5 16 -25 146 37 161 76 7 17 26 56 43 86 66 119 9 148 -312 161 -60 2 -114 9 -120 16 -19 23 -111 33 -160 17z"/> <path d="M5532 4751 c-17 -27 -32 -61 -33 -75 0 -14 -13 -43 -30 -65 -16 -21 -29 -53 -29 -70 1 -27 3 -27 20 -1 11 17 20 21 20 10 0 -13 6 -13 15 0 8 11 33 30 55 42 53 29 96 119 80 168 -17 54 -59 50 -98 -9z"/> <path d="M5440 4425 c0 -44 94 -185 122 -185 11 0 2 27 -22 60 -23 33 -39 67 -34 75 4 8 -9 31 -29 50 -35 33 -37 33 -37 0z"/> <path d="M5155 3918 c-109 -63 -122 -217 -23 -265 l71 -34 -66 -66 c-77 -77 -139 -113 -192 -113 -21 0 -67 -40 -106 -93 -38 -52 -81 -110 -96 -129 -75 -100 10 -206 101 -124 18 16 44 24 56 16 12 -7 44 10 70 38 26 29 60 52 75 52 15 0 36 8 46 18 52 50 284 63 318 17 34 -47 114 52 126 157 10 83 -36 208 -76 208 -45 0 -14 38 41 50 73 16 88 38 62 87 -25 46 -116 67 -163 38 -40 -25 -211 5 -207 36 2 10 9 44 16 74 14 59 3 66 -53 33z"/> <path d="M810 2580 c-7 -12 -11 -41 -9 -65 7 -90 -3 -130 -19 -75 -12 41 -19 25 -41 -85 -14 -74 -32 -131 -40 -126 -15 10 -41 -1159 -41 -1844 l0 -385 400 0 400 0 0 76 c0 42 -8 85 -17 95 -64 72 -131 350 -154 634 -7 85 -20 159 -29 165 -31 19 -80 -152 -93 -325 -7 -96 -21 -186 -31 -199 -11 -13 -12 -36 -4 -50 13 -21 10 -21 -16 0 -17 14 -37 45 -43 70 -11 43 -11 43 21 4 31 -40 31 -40 17 0 -14 36 -25 400 -32 1014 -3 261 -1 269 93 308 77 32 87 58 28 74 -24 6 -47 -2 -57 -20 -20 -35 -86 -28 -99 11 -6 20 3 23 33 14 33 -11 44 -3 55 38 7 31 31 56 60 63 41 11 43 16 18 41 -17 16 -40 23 -52 16 -16 -10 -14 -19 5 -31 20 -13 17 -17 -14 -18 -23 0 -52 -11 -65 -24 -17 -17 -24 -18 -24 -1 0 30 143 165 175 165 64 0 7 69 -75 89 -28 7 -81 44 -118 82 -37 38 -76 69 -86 69 -10 0 -13 8 -7 19 6 10 -11 52 -39 92 -27 41 -50 87 -50 102 0 32 -32 36 -50 7z m189 -1169 c-1 -33 -9 -165 -17 -292 -9 -127 -10 -278 -2 -336 16 -127 -5 -111 -48 36 -59 202 -25 781 41 691 15 -21 26 -65 26 -99z"/> <path d="M2151 2573 c-41 -30 -31 -93 16 -93 52 0 84 58 50 91 -24 25 -34 25 -66 2z"/> <path d="M2195 2465 c-50 -11 -43 -56 15 -101 28 -22 50 -56 51 -77 0 -20 13 -54 30 -76 40 -53 39 -7 -4 132 -39 125 -45 133 -92 122z"/> <path d="M1960 2370 c0 -36 -33 -40 -46 -5 -5 14 -15 19 -23 12 -8 -8 -6 -30 5 -50 13 -23 14 -49 2 -71 -14 -25 -10 -50 13 -84 40 -61 96 -87 81 -37 -6 19 -3 69 7 110 9 41 9 80 0 86 -10 6 -12 23 -6 40 6 16 1 29 -11 29 -12 0 -22 -13 -22 -30z"/> <path d="M2520 2305 c-78 -39 -96 -87 -58 -158 42 -80 2 -158 -79 -154 -70 3 -64 -18 27 -97 58 -50 70 -45 105 44 44 112 65 100 247 -150 48 -66 147 -183 221 -260 73 -77 169 -185 212 -240 44 -55 105 -122 135 -150 l56 -50 -47 85 c-25 47 -53 85 -60 85 -8 0 -25 27 -39 60 -14 34 -35 67 -48 75 -24 16 -82 129 -102 200 -7 25 -21 45 -31 45 -11 0 -19 11 -19 25 -1 14 -18 48 -40 75 -22 28 -39 62 -40 77 0 31 73 -53 153 -177 103 -158 170 -223 196 -187 25 33 115 3 239 -81 l59 -39 -12 44 c-9 33 1 53 38 77 59 38 59 38 -138 143 -85 46 -178 103 -207 128 -29 25 -81 70 -115 100 -35 30 -77 55 -95 55 -36 0 -277 243 -280 283 -2 15 -2 37 0 49 11 98 -156 154 -278 93z"/> <path d="M1400 2250 c-28 -15 -66 -32 -85 -38 -19 -6 -35 -19 -35 -30 0 -11 25 -7 55 9 30 16 66 29 79 29 24 0 56 37 43 50 -4 4 -30 -5 -57 -20z"/> <path d="M5092 2194 c-37 -27 -37 -30 15 -98 59 -77 67 -116 25 -116 -15 0 -37 -12 -50 -27 -25 -30 301 -37 331 -7 7 8 0 14 -17 14 -54 0 -97 68 -84 133 19 97 -133 167 -220 101z"/> <path d="M4965 2055 c-73 -75 -81 -106 -30 -119 46 -12 97 4 68 22 -15 9 -12 31 8 71 46 88 25 100 -46 26z"/> <path d="M1329 2031 c-91 -91 36 -212 150 -142 38 24 22 51 -29 51 -37 0 -50 11 -50 40 0 22 9 40 20 40 11 0 20 14 20 30 0 46 -56 36 -111 -19z"/> <path d="M4545 1541 c-35 -29 -44 -57 -43 -124 2 -48 7 -71 12 -52 5 19 30 75 57 125 52 97 45 110 -26 51z"/> <path d="M4249 1294 c-29 -25 -65 -77 -78 -115 -14 -38 -33 -87 -41 -109 -36 -91 108 77 147 172 47 112 45 115 -28 52z"/> <path d="M3260 981 c0 -11 27 -34 60 -51 70 -36 76 -26 20 30 -43 43 -80 52 -80 21z"/> <path d="M5438 895 c-13 -165 25 -256 107 -253 36 1 113 -3 173 -9 l107 -11 -62 62 c-69 66 -76 87 -38 103 14 5 5 11 -20 11 -55 2 -57 -18 -5 -83 48 -61 50 -78 10 -62 -16 6 -30 24 -30 39 0 15 -25 42 -55 61 -30 19 -66 48 -80 64 -13 17 -31 24 -38 16 -8 -7 10 -39 39 -69 l54 -56 -70 8 c-97 12 -111 163 -15 165 49 2 50 4 15 19 -58 25 -90 23 -92 -5z"/> <path d="M5580 879 c0 -12 21 -19 47 -16 26 4 62 -6 80 -21 38 -31 45 -2 9 34 -30 30 -136 32 -136 3z"/> <path d="M5482 575 c-1 -30 6 -55 16 -55 10 0 33 -5 50 -12 26 -10 31 1 29 55 -2 56 -4 59 -12 17 -9 -47 -11 -47 -26 -10 -16 40 -16 40 -20 0 -2 -34 -5 -32 -19 10 l-16 50 -2 -55z"/> <path d="M5658 579 c38 -16 44 -25 25 -44 -19 -19 -29 -18 -44 5 -15 25 -18 24 -19 -6 0 -27 12 -35 45 -30 65 9 61 84 -5 91 l-50 5 48 -21z"/> <path d="M5740 540 c0 -47 9 -60 40 -60 22 0 40 9 40 20 0 11 -15 20 -32 20 -23 0 -29 12 -22 40 6 22 2 40 -8 40 -10 0 -18 -27 -18 -60z"/> <path d="M3665 487 c-53 -21 -89 -129 -76 -220 17 -112 171 -272 171 -177 0 17 -9 30 -20 30 -11 0 -20 18 -20 40 0 22 -9 40 -20 40 -11 0 -14 36 -7 90 10 69 6 90 -15 90 -17 0 -20 6 -8 15 15 11 37 113 22 103 -1 0 -13 -6 -27 -11z"/> <path d="M1616 233 c-30 -25 -73 -88 -95 -140 l-40 -93 55 0 c46 0 60 15 93 95 21 52 59 115 84 140 l45 45 -44 0 c-24 0 -68 -21 -98 -47z"/> <path d="M4040 140 c0 -11 8 -20 18 -20 11 0 25 -27 32 -60 11 -52 22 -60 77 -59 l63 1 -45 31 c-25 18 -45 44 -45 59 0 16 -13 28 -30 28 -16 0 -30 9 -30 20 0 11 -9 20 -20 20 -11 0 -20 -9 -20 -20z"/> </g> </svg> 